<svg xmlns="http://www.w3.org/2000/svg" viewBox="0 0 600 400" preserveAspectRatio="xMidYMid slice" role="img">
  <title>Mount Fuji above a lake, with a red pagoda on the hill</title>
  <desc>Provenance: original vector illustration authored for this project. Not a photograph.</desc>
  <rect width="600" height="400" fill="#bfe0ef"/>
  <rect width="600" height="120" fill="#a6d3e8"/>
  <circle cx="482" cy="112" r="46" fill="#f2a541"/>
  <path d="M90 300 L250 120 L300 105 L350 120 L520 300 Z" fill="#2b54b8"/>
  <path d="M300 105 L350 120 L520 300 L420 300 Z" fill="#23479c"/>
  <path d="M250 120 L300 105 L350 120 L388 160 L368 152 L352 172 L334 154 L316 176 L298 156 L280 174 L262 154 L244 170 L214 160 Z" fill="#f6f7f4"/>
  <rect x="150" y="196" width="130" height="18" rx="9" fill="#f6f7f4" opacity=".92"/>
  <rect x="330" y="214" width="170" height="16" rx="8" fill="#f6f7f4" opacity=".85"/>
  <rect x="40" y="150" width="96" height="14" rx="7" fill="#f6f7f4" opacity=".9"/>
  <rect y="298" width="600" height="14" fill="#1d5e52"/>
  <rect y="310" width="600" height="90" fill="#6fb0cf"/>
  <path d="M130 310 L300 392 L480 310 Z" fill="#83bfd9"/>
  <path d="M250 310 L300 334 L350 310 Z" fill="#dbeef6"/>
  <g stroke="#f6f7f4" stroke-width="3" stroke-linecap="round" opacity=".8">
    <path d="M40 336 H110"/><path d="M160 356 H250"/><path d="M380 344 H470"/><path d="M500 372 H570"/><path d="M60 384 H140"/>
  </g>
  <path d="M0 300 Q80 226 176 300 Z" fill="#1d5e52"/>
  <g fill="#e2522f">
    <rect x="58" y="270" width="24" height="18"/>
    <rect x="61" y="252" width="18" height="14"/>
    <rect x="64" y="236" width="12" height="12"/>
  </g>
  <g fill="#1b2233">
    <path d="M44 273 H96 L88 264 H52 Z"/>
    <path d="M49 255 H91 L85 247 H55 Z"/>
    <path d="M53 239 H87 L81 231 H59 Z"/>
    <rect x="68.5" y="216" width="3" height="16"/>
  </g>
  <g fill="#143f37">
    <path d="M540 300 L566 222 L592 300 Z"/>
    <path d="M512 300 L534 244 L556 300 Z"/>
    <path d="M572 300 L590 256 L608 300 Z"/>
  </g>
  <g fill="none" stroke="#1b2233" stroke-width="2.5" stroke-linecap="round">
    <path d="M396 70 l8 6 l8 -6"/><path d="M424 54 l6 5 l6 -5"/><path d="M372 92 l6 4 l6 -4"/>
  </g>
</svg>
